<?xml version="1.0" ?><!DOCTYPE svg  PUBLIC '-//W3C//DTD SVG 1.1//EN'  'http://www.w3.org/Graphics/SVG/1.1/DTD/svg11.dtd'><svg height="512px" style="enable-background:new 0 0 512 512;" version="1.1" viewBox="0 0 512 512" width="512px" xml:space="preserve" xmlns="http://www.w3.org/2000/svg" xmlns:xlink="http://www.w3.org/1999/xlink"><g id="_x33_8_x2C__Keep"><g><polygon points="103.5,48.5 103.5,458.5 343.5,458.5 343.5,398.5 403.5,398.5 403.5,48.5   " style="fill:#FFFFFF;"/><path d="M443.5,413.5c13.811,0,25,11.19,25,25s-11.189,25-25,25c-13.81,0-25-11.19-25-25    S429.69,413.5,443.5,413.5z" style="fill:#FFFFFF;"/><path d="M61,118.5c9.67,0,17.5,7.83,17.5,17.5s-7.83,17.5-17.5,17.5c-9.66,0-17.5-7.83-17.5-17.5    S51.34,118.5,61,118.5z" style="fill:#FFFFFF;"/><path d="M343.5,398.5h60c-18.55,18.55-41.449,41.45-60,60V398.5z" style="fill:#9BC9FF;"/><rect height="260" style="fill:#9BC9FF;" width="230" x="138.5" y="83.5"/><rect height="20" style="fill:#FFFFFF;" width="30" x="238.5" y="303.5"/><polygon points="283.5,283.5 283.5,303.5 268.5,303.5 238.5,303.5 223.5,303.5 223.5,283.5   " style="fill:#FFFFFF;"/><path d="M333.5,188.5c0,33.57-20.689,62.29-50,74.16v20.84h-60v-20.84c-29.31-11.87-50-40.59-50-74.16    c0-44.18,35.82-80,80-80S333.5,144.32,333.5,188.5z" style="fill:#FFFFFF;"/><circle cx="451" cy="201" r="7.5" style="fill:#1E81CE;"/><circle cx="441" cy="111" r="7.5" style="fill:#1E81CE;"/><circle cx="431" cy="371" r="7.5" style="fill:#1E81CE;"/><circle cx="51" cy="411" r="7.5" style="fill:#1E81CE;"/><circle cx="46" cy="246" r="7.5" style="fill:#1E81CE;"/><path d="M343.5,463.5h-240c-2.761,0-5-2.238-5-5v-410c0-2.761,2.239-5,5-5h300c2.762,0,5,2.239,5,5v350    c0,1.326-0.527,2.598-1.465,3.535l-60,60C346.098,462.974,344.826,463.5,343.5,463.5z M108.5,453.5h232.929l57.071-57.071V53.5    h-290V453.5z" style="fill:#1E81CE;"/><path d="M343.5,463.5c-2.762,0-5-2.238-5-5v-60c0-2.762,2.238-5,5-5h60c2.762,0,5,2.238,5,5s-2.238,5-5,5    h-55v55C348.5,461.262,346.262,463.5,343.5,463.5z" style="fill:#1E81CE;"/><path d="M368.5,348.5h-230c-2.761,0-5-2.238-5-5v-260c0-2.761,2.239-5,5-5h230c2.762,0,5,2.239,5,5v260    C373.5,346.262,371.262,348.5,368.5,348.5z M143.5,338.5h220v-250h-220V338.5z" style="fill:#1E81CE;"/><path d="M443.5,468.5c-16.542,0-30-13.458-30-30s13.458-30,30-30s30,13.458,30,30    S460.042,468.5,443.5,468.5z M443.5,418.5c-11.027,0-20,8.972-20,20s8.973,20,20,20s20-8.972,20-20S454.527,418.5,443.5,418.5z" style="fill:#1E81CE;"/><path d="M61,158.5c-12.407,0-22.5-10.093-22.5-22.5s10.093-22.5,22.5-22.5s22.5,10.093,22.5,22.5    S73.407,158.5,61,158.5z M61,123.5c-6.893,0-12.5,5.607-12.5,12.5s5.607,12.5,12.5,12.5s12.5-5.607,12.5-12.5    S67.893,123.5,61,123.5z" style="fill:#1E81CE;"/><path d="M283.5,288.5c-2.762,0-5-2.238-5-5v-20.84c0-2.037,1.235-3.869,3.123-4.635    C310.1,246.493,328.5,219.203,328.5,188.5c0-41.355-33.645-75-75-75c-41.355,0-75,33.645-75,75    c0,30.703,18.4,57.993,46.877,69.525c1.888,0.766,3.123,2.598,3.123,4.635v20.84c0,2.762-2.239,5-5,5s-5-2.238-5-5v-17.542    c-30.486-13.756-50-43.798-50-77.458c0-46.869,38.131-85,85-85s85,38.131,85,85c0,33.66-19.514,63.702-50,77.458V283.5    C288.5,286.262,286.262,288.5,283.5,288.5z" style="fill:#1E81CE;"/><path d="M306.07,196.07c-2.762,0-5-2.239-5-5c0-26.23-21.34-47.57-47.57-47.57    c-26.23,0-47.57,21.34-47.57,47.57c0,2.761-2.239,5-5,5s-5-2.239-5-5c0-31.744,25.826-57.57,57.57-57.57s57.57,25.826,57.57,57.57    C311.07,193.831,308.832,196.07,306.07,196.07z" style="fill:#1E81CE;"/><path d="M283.5,308.5h-15c-2.762,0-5-2.238-5-5s2.238-5,5-5h10v-10h-50v10h10c2.761,0,5,2.238,5,5    s-2.239,5-5,5h-15c-2.761,0-5-2.238-5-5v-20c0-2.762,2.239-5,5-5h60c2.762,0,5,2.238,5,5v20    C288.5,306.262,286.262,308.5,283.5,308.5z" style="fill:#1E81CE;"/><path d="M268.5,328.5h-30c-2.761,0-5-2.238-5-5v-20c0-2.762,2.239-5,5-5h30c2.762,0,5,2.238,5,5v20    C273.5,326.262,271.262,328.5,268.5,328.5z M243.5,318.5h20v-10h-20V318.5z" style="fill:#1E81CE;"/></g></g><g id="Layer_1"/></svg>